<?xml version="1.0" encoding="UTF-8"?>
<svg version="1.1" xmlns="http://www.w3.org/2000/svg" width="86" height="93">
<path d="M0 0 C1.18810776 -0.00637985 2.37621552 -0.0127597 3.60032654 -0.01933289 C4.88472122 -0.02044571 6.16911591 -0.02155853 7.49243164 -0.02270508 C8.8104628 -0.02603348 10.12849396 -0.02936188 11.48646545 -0.03279114 C14.27646707 -0.03877722 17.06643773 -0.04063155 19.85644531 -0.04003906 C23.4286832 -0.03993743 27.00072238 -0.0535934 30.57291317 -0.07081127 C33.98358908 -0.08461334 37.39422815 -0.08402019 40.80493164 -0.08520508 C42.08730209 -0.09239059 43.36967255 -0.09957611 44.69090271 -0.10697937 C46.47779259 -0.10236443 46.47779259 -0.10236443 48.30078125 -0.09765625 C49.87272499 -0.09979378 49.87272499 -0.09979378 51.47642517 -0.10197449 C54.28563037 0.15163203 55.91866403 0.51787717 58.21508789 2.14526367 C58.89293781 4.47537276 59.55925582 6.80886191 60.21508789 9.14526367 C60.88536514 9.58841919 61.5556424 10.03157471 62.24623108 10.48815918 C64.21508789 12.14526367 64.21508789 12.14526367 64.71629333 14.87756348 C64.7164595 15.98104126 64.71662567 17.08451904 64.71679688 18.22143555 C64.72617783 19.47283325 64.73555878 20.72423096 64.745224 22.0135498 C64.73474597 23.38037804 64.72337699 24.74719969 64.71118164 26.11401367 C64.7113366 27.51501541 64.71282514 28.91601758 64.71559143 30.3170166 C64.71697595 33.25263429 64.70440956 36.1877637 64.68164062 39.12329102 C64.65325503 42.88636646 64.6559922 46.64863057 64.66873074 50.41176605 C64.67568553 53.3045749 64.66790108 56.19719618 64.65547371 59.08998108 C64.65095721 60.47745545 64.65062416 61.86494995 64.65453911 63.25242615 C64.657449 65.19134842 64.63879256 67.13026694 64.61914062 69.0690918 C64.61373764 70.17256958 64.60833466 71.27604736 64.60276794 72.41296387 C64.21508789 75.14526367 64.21508789 75.14526367 63.13943481 77.00076294 C60.13684959 78.78654332 57.48941293 78.52717512 54.02148438 78.53344727 C52.92836945 78.5413327 52.92836945 78.5413327 51.81317139 78.54937744 C49.40395692 78.56258348 46.99540284 78.55383854 44.58618164 78.54370117 C42.91374077 78.54572152 41.24130076 78.54863264 39.56886292 78.55239868 C36.06421519 78.55682265 32.55979685 78.55038792 29.05517578 78.53637695 C24.55668894 78.51927167 20.05873849 78.52913406 15.56027126 78.54709435 C12.10736526 78.55791903 8.65458711 78.55449217 5.20167732 78.54671097 C3.54263305 78.54470599 1.88357727 78.54717864 0.22454643 78.55414963 C-2.09085105 78.56174417 -4.40537123 78.55018971 -6.72070312 78.53344727 C-8.03958023 78.53106049 -9.35845734 78.52867371 -10.71730042 78.5262146 C-11.72961227 78.40050079 -12.74192413 78.27478699 -13.78491211 78.14526367 C-16.09485685 74.68034656 -16.03759623 73.35440154 -16.04370117 69.26855469 C-16.05000549 68.06042618 -16.05630981 66.85229767 -16.06280518 65.6075592 C-16.05875671 64.30129074 -16.05470825 62.99502228 -16.05053711 61.64916992 C-16.05188459 60.29540436 -16.05382582 58.94163927 -16.05633545 57.58787537 C-16.05928381 54.75075676 -16.05499908 51.91376412 -16.0456543 49.07666016 C-16.03427069 45.44386778 -16.04081392 41.81137129 -16.05279922 38.17858982 C-16.06003495 35.38272381 -16.05772186 32.58692764 -16.05254364 29.79105949 C-16.05056414 27.8013426 -16.05662899 25.81162297 -16.06280518 23.82191467 C-16.05650085 22.610634 -16.05019653 21.39935333 -16.04370117 20.15136719 C-16.04210999 19.0856398 -16.0405188 18.01991241 -16.03887939 16.92189026 C-15.78001394 14.09171197 -15.35677292 12.49316472 -13.78491211 10.14526367 C-12.79491211 9.48526367 -11.80491211 8.82526367 -10.78491211 8.14526367 C-10.45491211 6.96963867 -10.12491211 5.79401367 -9.78491211 4.58276367 C-9.28991211 2.88120117 -9.28991211 2.88120117 -8.78491211 1.14526367 C-5.60848455 0.08645449 -3.33713092 0.01214751 0 0 Z M40.21508789 16.14526367 C39.9843457 16.73694336 39.75360352 17.32862305 39.51586914 17.93823242 C37.40284858 23.05792254 35.41919844 26.52505737 31.21508789 30.14526367 C34.98351454 29.92992501 36.21226122 29.1479019 39.02758789 26.52026367 C41.63784535 23.15955719 41.63663515 20.36073625 41.21508789 16.14526367 C40.88508789 16.14526367 40.55508789 16.14526367 40.21508789 16.14526367 Z M7.21508789 17.14526367 C7.21508789 18.79526367 7.21508789 20.44526367 7.21508789 22.14526367 C7.54508789 22.14526367 7.87508789 22.14526367 8.21508789 22.14526367 C8.21508789 20.49526367 8.21508789 18.84526367 8.21508789 17.14526367 C7.88508789 17.14526367 7.55508789 17.14526367 7.21508789 17.14526367 Z M8.21508789 22.14526367 C9.21508789 24.14526367 9.21508789 24.14526367 9.21508789 24.14526367 Z M10.21508789 25.14526367 C10.87508789 26.46526367 11.53508789 27.78526367 12.21508789 29.14526367 C12.87508789 28.81526367 13.53508789 28.48526367 14.21508789 28.14526367 C12.89508789 27.15526367 11.57508789 26.16526367 10.21508789 25.14526367 Z M17.21508789 30.14526367 C17.54508789 30.80526367 17.87508789 31.46526367 18.21508789 32.14526367 C21.10203975 32.98766339 21.10203975 32.98766339 24.21508789 33.14526367 C25.20508789 32.48526367 26.19508789 31.82526367 27.21508789 31.14526367 C26.20672727 29.91259019 26.20672727 29.91259019 24.14868164 30.04760742 C22.91311523 30.06500977 22.91311523 30.06500977 21.65258789 30.08276367 C20.4131543 30.09629883 20.4131543 30.09629883 19.14868164 30.11010742 C18.19155273 30.12750977 18.19155273 30.12750977 17.21508789 30.14526367 Z M27.21508789 30.14526367 C31.21508789 31.14526367 31.21508789 31.14526367 31.21508789 31.14526367 Z " fill="#FCE503" transform="translate(19.784912109375,7.854736328125)"/>
<path d="M0 0 C5.94 0 11.88 0 18 0 C18 2.97 18 5.94 18 9 C18.66 9 19.32 9 20 9 C20 9.66 20 10.32 20 11 C20.99 11.33 21.98 11.66 23 12 C23.598125 12.78375 24.19625 13.5675 24.8125 14.375 C29.5500396 20.06004752 36.04866003 20.83228479 43 22 C42.4135682 28.1575339 41.43270782 33.98262715 40 40 C31.585 40.495 31.585 40.495 23 41 C23.99 41.66 24.98 42.32 26 43 C26.6875 46.125 26.6875 46.125 27 49 C30.3 49 33.6 49 37 49 C37 51.31 37 53.62 37 56 C36.01 56.495 36.01 56.495 35 57 C34.34786708 59.02463255 34.34786708 59.02463255 34 61 C29.47934572 61.049377 24.95884783 61.08570823 20.43798828 61.10986328 C18.89954902 61.11993118 17.36112893 61.13358646 15.82275391 61.15087891 C13.61355867 61.17509317 11.40461605 61.18647491 9.1953125 61.1953125 C8.50567413 61.20563507 7.81603577 61.21595764 7.10549927 61.22659302 C5.40199094 61.22699478 3.69914057 61.12191026 2 61 C0 59 0 59 -0.24050903 56.5196228 C-0.23606781 55.47593536 -0.23162659 54.43224792 -0.22705078 53.35693359 C-0.22689972 52.17586029 -0.22674866 50.99478699 -0.22659302 49.77792358 C-0.21627045 48.49769318 -0.20594788 47.21746277 -0.1953125 45.8984375 C-0.1924826 44.59170074 -0.18965271 43.28496399 -0.18673706 41.93862915 C-0.17909776 38.46317919 -0.1594469 34.98789617 -0.1373291 31.51251221 C-0.11687696 27.96669778 -0.10773671 24.4208564 -0.09765625 20.875 C-0.07620114 13.91659114 -0.04101667 6.95832077 0 0 Z " fill="#FBD906" transform="translate(7,23)"/>
<path d="M0 0 C0.66 0.33 1.32 0.66 2 1 C2.09765625 7.15234375 2.09765625 7.15234375 2 9 C0.39135235 10.60864765 -1.65987738 10.34891225 -3.875 10.625 C-6.59116048 11.06656502 -6.59116048 11.06656502 -9 12 C-11.38332165 15.82775901 -12.32812313 19.56561264 -13 24 C-11.2984375 23.9690625 -11.2984375 23.9690625 -9.5625 23.9375 C-6 24 -6 24 -5 25 C-4.73706944 29.03160191 -4.70595156 30.55892734 -7 34 C-8.9453125 34.51171875 -8.9453125 34.51171875 -11.125 34.6875 C-13.043125 34.8421875 -13.043125 34.8421875 -15 35 C-15.66 38.63 -16.32 42.26 -17 46 C-21.62 46 -26.24 46 -31 46 C-30.67 41.71 -30.34 37.42 -30 33 C-33.3 33 -36.6 33 -40 33 C-40.33 32.34 -40.66 31.68 -41 31 C-43.01669827 29.86649466 -43.01669827 29.86649466 -45 29 C-43.68 29 -42.36 29 -41 29 C-41 28.34 -41 27.68 -41 27 C-44.63 26.67 -48.26 26.34 -52 26 C-52 25.67 -52 25.34 -52 25 C-46.28094617 24.17463655 -40.7732851 23.87246299 -35 23.9375 C-34.22527344 23.94201172 -33.45054688 23.94652344 -32.65234375 23.95117188 C-30.76819476 23.96280242 -28.88408635 23.98073094 -27 24 C-26.97421875 23.443125 -26.9484375 22.88625 -26.921875 22.3125 C-26.39946802 15.28375149 -24.76533417 9.69256222 -19.625 4.6875 C-18.75875 4.130625 -17.8925 3.57375 -17 3 C-15.700625 2.13375 -15.700625 2.13375 -14.375 1.25 C-9.60625116 -0.51620327 -5.03746334 -0.42801976 0 0 Z " fill="#057AD2" transform="translate(74,39)"/>
<path d="M0 0 C0.33 0 0.66 0 1 0 C1 2.64 1 5.28 1 8 C2.32 7.34 3.64 6.68 5 6 C5 18.54 5 31.08 5 44 C-13 44 -13 44 -19 43 C-18.85962479 41.18706911 -18.71255111 39.3746557 -18.5625 37.5625 C-18.48128906 36.55316406 -18.40007813 35.54382813 -18.31640625 34.50390625 C-18 32 -18 32 -17 31 C-14.9412232 30.72046781 -12.88271568 30.55265649 -10.8125 30.37890625 C-10.214375 30.25386719 -9.61625 30.12882812 -9 30 C-7.64560332 27.29120665 -7.93498549 24.99066732 -8 22 C-10.31 21.67 -12.62 21.34 -15 21 C-14.8873346 16.29878028 -14.64980462 12.94517035 -11.9375 9 C-8.11256881 6.39579153 -5.58362874 6.23306587 -1 6 C-0.67 4.02 -0.34 2.04 0 0 Z " fill="#FDD302" transform="translate(76,42)"/>
<path d="M0 0 C7.42408809 -0.02325697 14.84816821 -0.04098279 22.27228546 -0.05181217 C25.72027379 -0.05701194 29.16823704 -0.06405628 32.61621094 -0.07543945 C36.58788748 -0.08846827 40.55955417 -0.09325224 44.53125 -0.09765625 C45.75863892 -0.10281754 46.98602783 -0.10797882 48.25061035 -0.11329651 C54.26616553 -0.113688 60.05373271 0.07009132 66 1 C66.12375 1.969375 66.2475 2.93875 66.375 3.9375 C66.684375 5.4534375 66.684375 5.4534375 67 7 C67.99 7.495 67.99 7.495 69 8 C69 8.66 69 9.32 69 10 C45.9 10 22.8 10 -1 10 C-0.67 6.7 -0.34 3.4 0 0 Z " fill="#FCCE04" transform="translate(10,10)"/>
<path d="M0 0 C1.18810776 -0.00630432 2.37621552 -0.01260864 3.60032654 -0.019104 C4.88472122 -0.01505554 6.16911591 -0.01100708 7.49243164 -0.00683594 C9.46947838 -0.00970612 9.46947838 -0.00970612 11.48646545 -0.01263428 C14.27650641 -0.01558251 17.06641926 -0.01129835 19.85644531 -0.00195312 C23.42870526 0.0094303 27.00066431 0.0028873 30.57291317 -0.00909805 C33.98360994 -0.01807431 37.39422633 -0.01178384 40.80493164 -0.00683594 C42.08730209 -0.0108844 43.36967255 -0.01493286 44.69090271 -0.019104 C45.88216263 -0.01279968 47.07342255 -0.00649536 48.30078125 0 C49.34874374 0.00159119 50.39670624 0.00318237 51.47642517 0.00482178 C54.2819806 0.26499229 55.9204426 0.63400737 58.21508789 2.25878906 C58.89293781 4.58889815 59.55925582 6.9223873 60.21508789 9.25878906 C60.88601974 9.70161728 61.5569516 10.1444455 62.24821472 10.60069275 C64.21508789 12.25878906 64.21508789 12.25878906 64.70283508 14.99781799 C64.69403572 16.65755898 64.69403572 16.65755898 64.68505859 18.35083008 C64.68798416 19.60545547 64.69090973 20.86008087 64.69392395 22.15272522 C64.67681097 23.52272251 64.659112 24.8927126 64.64086914 26.26269531 C64.63594542 27.66608721 64.63264642 29.06948568 64.63090515 30.47288513 C64.62326571 33.41271974 64.6027067 36.35206738 64.57177734 39.29174805 C64.53216601 43.06368376 64.51416282 46.83530283 64.50446796 50.60742283 C64.4945033 54.20089005 64.4746101 57.79427966 64.45336914 61.38769531 C64.44827552 62.41926852 64.44827552 62.41926852 64.44307899 63.47168159 C64.43152366 65.4132086 64.41200165 67.3546833 64.39208984 69.29614258 C64.38224564 70.40184097 64.37240143 71.50753937 64.36225891 72.64674377 C64.21508789 75.25878906 64.21508789 75.25878906 63.21508789 77.25878906 C62.55508789 76.92878906 61.89508789 76.59878906 61.21508789 76.25878906 C61.54508789 55.79878906 61.87508789 35.33878906 62.21508789 14.25878906 C37.13508789 14.25878906 12.05508789 14.25878906 -13.78491211 14.25878906 C-13.64053711 24.30316406 -13.49616211 34.34753906 -13.34741211 44.69628906 C-13.30430908 47.87181396 -13.26120605 51.04733887 -13.21679688 54.3190918 C-13.17869355 56.8185281 -13.14022611 59.3179589 -13.10131836 61.81738281 C-13.08484253 63.12936646 -13.0683667 64.4413501 -13.0513916 65.79309082 C-13.03120972 67.03143677 -13.01102783 68.26978271 -12.99023438 69.5456543 C-12.96691795 71.16781105 -12.96691795 71.16781105 -12.94313049 72.82273865 C-13.05733191 75.20629957 -13.05733191 75.20629957 -11.78491211 76.25878906 C-9.26610694 76.41867397 -6.77148944 76.51813131 -4.24975586 76.57519531 C-3.11987999 76.60636696 -3.11987999 76.60636696 -1.96717834 76.63816833 C0.44764779 76.70374331 2.86258587 76.76258527 5.27758789 76.82128906 C6.91106318 76.86446676 8.54452699 76.9080808 10.17797852 76.95214844 C14.19023253 77.05943268 18.20259953 77.16067727 22.21508789 77.25878906 C22.71008789 75.27878906 22.71008789 75.27878906 23.21508789 73.25878906 C23.21508789 74.57878906 23.21508789 75.89878906 23.21508789 77.25878906 C26.84508789 77.25878906 30.47508789 77.25878906 34.21508789 77.25878906 C34.21508789 77.58878906 34.21508789 77.91878906 34.21508789 78.25878906 C27.41584397 78.33467271 20.61670867 78.38731832 13.81713867 78.42358398 C11.50264404 78.43869759 9.18817816 78.45918902 6.8737793 78.48510742 C3.55258093 78.52137747 0.23176021 78.5384895 -3.08959961 78.55175781 C-4.64902786 78.5749836 -4.64902786 78.5749836 -6.23995972 78.59867859 C-7.68122726 78.59901848 -7.68122726 78.59901848 -9.15161133 78.59936523 C-9.99988495 78.60602707 -10.84815857 78.6126889 -11.72213745 78.61955261 C-12.40285309 78.50050064 -13.08356873 78.38144867 -13.78491211 78.25878906 C-16.09485685 74.79387195 -16.03759623 73.46792693 -16.04370117 69.38208008 C-16.05000549 68.17395157 -16.05630981 66.96582306 -16.06280518 65.72108459 C-16.05875671 64.41481613 -16.05470825 63.10854767 -16.05053711 61.76269531 C-16.05188459 60.40892975 -16.05382582 59.05516466 -16.05633545 57.70140076 C-16.05928381 54.86428215 -16.05499908 52.02728951 -16.0456543 49.19018555 C-16.03427069 45.55739317 -16.04081392 41.92489668 -16.05279922 38.29211521 C-16.06003495 35.4962492 -16.05772186 32.70045303 -16.05254364 29.90458488 C-16.05056414 27.91486799 -16.05662899 25.92514836 -16.06280518 23.93544006 C-16.05650085 22.72415939 -16.05019653 21.51287872 -16.04370117 20.26489258 C-16.04210999 19.19916519 -16.0405188 18.13343781 -16.03887939 17.03541565 C-15.78231342 14.23037752 -15.32018705 12.59990502 -13.78491211 10.25878906 C-11.65991211 9.00878906 -11.65991211 9.00878906 -9.78491211 8.25878906 C-10.11491211 9.57878906 -10.44491211 10.89878906 -10.78491211 12.25878906 C12.31508789 12.25878906 35.41508789 12.25878906 59.21508789 12.25878906 C59.21508789 11.59878906 59.21508789 10.93878906 59.21508789 10.25878906 C58.22508789 9.92878906 57.23508789 9.59878906 56.21508789 9.25878906 C56.21508789 7.27878906 56.21508789 5.29878906 56.21508789 3.25878906 C34.76508789 2.92878906 13.31508789 2.59878906 -8.78491211 2.25878906 C-5.34004232 -0.0377908 -4.05615801 0.0061634 0 0 Z " fill="#F3E87E" transform="translate(19.784912109375,7.7412109375)"/>
<path d="M0 0 C0.66 0.33 1.32 0.66 2 1 C2.09765625 7.15234375 2.09765625 7.15234375 2 9 C0.39135235 10.60864765 -1.65987738 10.34891225 -3.875 10.625 C-6.59116048 11.06656502 -6.59116048 11.06656502 -9 12 C-11.38332165 15.82775901 -12.32812313 19.56561264 -13 24 C-11.2984375 23.9690625 -11.2984375 23.9690625 -9.5625 23.9375 C-6 24 -6 24 -5 25 C-4.73706944 29.03160191 -4.70595156 30.55892734 -7 34 C-8.9453125 34.51171875 -8.9453125 34.51171875 -11.125 34.6875 C-13.043125 34.8421875 -13.043125 34.8421875 -15 35 C-15.33 36.65 -15.66 38.3 -16 40 C-16.33 40 -16.66 40 -17 40 C-17.04254356 38.00045254 -17.04080783 35.99958364 -17 34 C-15.41727399 32.41727399 -13.61965997 32.65264253 -11.4375 32.4375 C-10.61121094 32.35371094 -9.78492188 32.26992187 -8.93359375 32.18359375 C-8.29550781 32.12300781 -7.65742187 32.06242187 -7 32 C-7 30.02 -7 28.04 -7 26 C-9.31 26 -11.62 26 -14 26 C-14.66 23.69 -15.32 21.38 -16 19 C-17.98 18.67 -19.96 18.34 -22 18 C-22.309375 18.94875 -22.61875 19.8975 -22.9375 20.875 C-24 24 -24 24 -25 26 C-29.95 26 -34.9 26 -40 26 C-39.34 27.98 -38.68 29.96 -38 32 C-40.31 31.34 -42.62 30.68 -45 30 C-43.68 29.67 -42.36 29.34 -41 29 C-41 28.34 -41 27.68 -41 27 C-44.63 26.67 -48.26 26.34 -52 26 C-52 25.67 -52 25.34 -52 25 C-46.28094617 24.17463655 -40.7732851 23.87246299 -35 23.9375 C-34.22527344 23.94201172 -33.45054688 23.94652344 -32.65234375 23.95117188 C-30.76819476 23.96280242 -28.88408635 23.98073094 -27 24 C-26.97421875 23.443125 -26.9484375 22.88625 -26.921875 22.3125 C-26.39946802 15.28375149 -24.76533417 9.69256222 -19.625 4.6875 C-18.75875 4.130625 -17.8925 3.57375 -17 3 C-15.700625 2.13375 -15.700625 2.13375 -14.375 1.25 C-9.60625116 -0.51620327 -5.03746334 -0.42801976 0 0 Z " fill="#047BD4" transform="translate(74,39)"/>
<path d="M0 0 C6.6 0 13.2 0 20 0 C20 20.46 20 40.92 20 62 C19.67 62 19.34 62 19 62 C18.67 50.45 18.34 38.9 18 27 C16.02 27.99 16.02 27.99 14 29 C14.02320312 28.39671875 14.04640625 27.7934375 14.0703125 27.171875 C14.08835937 26.37265625 14.10640625 25.5734375 14.125 24.75 C14.14820312 23.96109375 14.17140625 23.1721875 14.1953125 22.359375 C13.9828378 19.79268059 13.28654105 18.2083933 12 16 C10.2709226 15.97274659 8.54171824 15.95349013 6.8125 15.9375 C5.84957031 15.92589844 4.88664062 15.91429687 3.89453125 15.90234375 C1.14423487 15.99513378 -1.32479591 16.37888315 -4 17 C-4 16.01 -4 15.02 -4 14 C-3.01 14 -2.02 14 -1 14 C0.40422604 9.0702801 0.40422604 9.0702801 0 0 Z " fill="#FDE501" transform="translate(62,22)"/>
<path d="M0 0 C18.48 0 36.96 0 56 0 C57.58493084 3.16986168 57.2940042 6.54032261 57 10 C56 12.5 56 12.5 55 14 C54.01 14 53.02 14 52 14 C52 14.99 52 15.98 52 17 C52.70769531 16.67644531 53.41539063 16.35289063 54.14453125 16.01953125 C57.1700996 14.93926676 59.48687473 14.70059942 62.6875 14.6875 C64.11642578 14.66236328 64.11642578 14.66236328 65.57421875 14.63671875 C66.37472656 14.75660156 67.17523438 14.87648438 68 15 C68.99 16.485 68.99 16.485 70 18 C69.13117188 17.97679688 68.26234375 17.95359375 67.3671875 17.9296875 C66.21476562 17.91164063 65.06234375 17.89359375 63.875 17.875 C62.73804688 17.85179688 61.60109375 17.82859375 60.4296875 17.8046875 C56.94242233 18.00327891 54.2446138 18.7475199 51 20 C51 18.68 51 17.36 51 16 C50.01 15.67 49.02 15.34 48 15 C48.825 14.401875 49.65 13.80375 50.5 13.1875 C51.325 12.465625 52.15 11.74375 53 11 C53 10.01 53 9.02 53 8 C52.67 8 52.34 8 52 8 C52 6.02 52 4.04 52 2 C42.76 2 33.52 2 24 2 C24.66 4.31 25.32 6.62 26 9 C25 12 25 12 23 13 C22.34 12.67 21.68 12.34 21 12 C21 11.34 21 10.68 21 10 C20.34 10 19.68 10 19 10 C19 7.03 19 4.06 19 1 C13.06 1 7.12 1 1 1 C1.10791932 8.67545795 1.21995947 16.35083421 1.33933926 24.02612209 C1.39460027 27.58972968 1.44802518 31.15334543 1.49731445 34.71704102 C1.55400532 38.81015245 1.61857318 42.9031061 1.68359375 46.99609375 C1.70030624 48.28148544 1.71701874 49.56687714 1.73423767 50.89122009 C1.75418289 52.07236893 1.77412811 53.25351776 1.79467773 54.47045898 C1.81022202 55.51636703 1.8257663 56.56227509 1.84178162 57.63987732 C1.73699824 59.95640697 1.73699824 59.95640697 3 61 C5.37338639 61.15971977 7.72118272 61.2592433 10.09765625 61.31640625 C11.16094398 61.3475779 11.16094398 61.3475779 12.24571228 61.37937927 C14.51787305 61.44494598 16.79015264 61.5037923 19.0625 61.5625 C20.59962183 61.60567849 22.1367315 61.64929255 23.67382812 61.69335938 C27.4490959 61.80063449 31.2244836 61.90188137 35 62 C35.33 60.35 35.66 58.7 36 57 C37.24546405 59.49092811 36.7767578 60.41080733 36 63 C31.19451403 63.04936883 26.38917506 63.08570443 21.58349609 63.10986328 C19.94805328 63.11993254 18.31262851 63.13358881 16.67724609 63.15087891 C14.3290563 63.17508705 11.98110412 63.18647357 9.6328125 63.1953125 C8.53273361 63.21079636 8.53273361 63.21079636 7.41043091 63.22659302 C5.60537303 63.22699368 3.8009217 63.12212755 2 63 C0 61 0 61 -0.24050903 58.44369507 C-0.23606781 57.36447784 -0.23162659 56.28526062 -0.22705078 55.17333984 C-0.22689972 53.95222504 -0.22674866 52.73111023 -0.22659302 51.47299194 C-0.21637903 50.13563882 -0.20594702 48.79828735 -0.1953125 47.4609375 C-0.1915828 46.09616299 -0.18873563 44.73138581 -0.18673706 43.36660767 C-0.17909714 39.77279277 -0.15944572 36.17913927 -0.1373291 32.58538818 C-0.11687832 28.91892724 -0.10762749 25.25243946 -0.09765625 21.5859375 C-0.07726097 14.3904824 -0.03811609 7.19547066 0 0 Z M21 3 C21 4.65 21 6.3 21 8 C21.33 8 21.66 8 22 8 C22 6.35 22 4.7 22 3 C21.67 3 21.34 3 21 3 Z M22 8 C23 10 23 10 23 10 Z " fill="#F7D71F" transform="translate(6,22)"/>
<path d="M0 0 C0.33 0 0.66 0 1 0 C1.125 6.75 1.125 6.75 0 9 C-2.0625 9.625 -2.0625 9.625 -4 10 C-3.67 10.66 -3.34 11.32 -3 12 C-3.1875 14 -3.1875 14 -4 16 C-6.0625 17.25 -6.0625 17.25 -8 18 C-7.50886719 18.54140625 -7.01773438 19.0828125 -6.51171875 19.640625 C-3.84857974 23.79704868 -4.82786964 28.18034999 -5 33 C-8.63 33 -12.26 33 -16 33 C-16.33 35.97 -16.66 38.94 -17 42 C-9.74 42 -2.48 42 5 42 C5 42.66 5 43.32 5 44 C-11.8929385 44.18451025 -11.8929385 44.18451025 -19 43 C-18.85962479 41.18706911 -18.71255111 39.3746557 -18.5625 37.5625 C-18.48128906 36.55316406 -18.40007813 35.54382813 -18.31640625 34.50390625 C-18 32 -18 32 -17 31 C-14.9412232 30.72046781 -12.88271568 30.55265649 -10.8125 30.37890625 C-10.214375 30.25386719 -9.61625 30.12882812 -9 30 C-7.64560332 27.29120665 -7.93498549 24.99066732 -8 22 C-10.31 21.67 -12.62 21.34 -15 21 C-14.8873346 16.29878028 -14.64980462 12.94517035 -11.9375 9 C-8.11256881 6.39579153 -5.58362874 6.23306587 -1 6 C-0.67 4.02 -0.34 2.04 0 0 Z " fill="#E3D52E" transform="translate(76,42)"/>
<path d="M0 0 C1.32 0 2.64 0 4 0 C4.33 0.66 4.66 1.32 5 2 C6.01368652 1.99214478 6.01368652 1.99214478 7.04785156 1.98413086 C10.11522489 1.96331993 13.18258333 1.95032671 16.25 1.9375 C17.84521484 1.92493164 17.84521484 1.92493164 19.47265625 1.91210938 C20.49746094 1.90888672 21.52226563 1.90566406 22.578125 1.90234375 C23.99206543 1.89448853 23.99206543 1.89448853 25.43457031 1.88647461 C27.78123437 1.99031918 29.75644478 2.33293471 32 3 C32 2.01 32 1.02 32 0 C33.32 0 34.64 0 36 0 C35.67 1.65 35.34 3.3 35 5 C35.99 5.66 36.98 6.32 38 7 C24.8 7 11.6 7 -2 7 C-1.67 6.34 -1.34 5.68 -1 5 C-0.34 5 0.32 5 1 5 C0.67 3.35 0.34 1.7 0 0 Z " fill="#FDAE01" transform="translate(26,13)"/>
<path d="M0 0 C0.77923828 0.01353516 1.55847656 0.02707031 2.36132812 0.04101562 C4.26202404 0.07599776 6.16235834 0.12979041 8.0625 0.1875 C8.3925 1.1775 8.7225 2.1675 9.0625 3.1875 C12.3625 3.1875 15.6625 3.1875 19.0625 3.1875 C19.0625 5.4975 19.0625 7.8075 19.0625 10.1875 C18.5675 8.2075 18.5675 8.2075 18.0625 6.1875 C16.62414795 6.19535522 16.62414795 6.19535522 15.15673828 6.20336914 C11.60466441 6.22144679 8.05259463 6.23294215 4.50048828 6.24243164 C2.96206987 6.24746552 1.42365625 6.25429308 -0.11474609 6.26293945 C-2.32390526 6.27504639 -4.53300126 6.28073769 -6.7421875 6.28515625 C-7.77664505 6.29289818 -7.77664505 6.29289818 -8.83200073 6.30079651 C-13.70975659 6.30137171 -13.70975659 6.30137171 -15.9375 5.1875 C-15.9375 4.5275 -15.9375 3.8675 -15.9375 3.1875 C-10.3935148 0.38237601 -6.16479121 -0.2060213 0 0 Z " fill="#C6BE43" transform="translate(24.9375,68.8125)"/>
<path d="M0 0 C6.6 0 13.2 0 20 0 C20 20.46 20 40.92 20 62 C19.67 62 19.34 62 19 62 C18.67 50.45 18.34 38.9 18 27 C16.02 27.99 16.02 27.99 14 29 C14 24.71 14 20.42 14 16 C14.66 16 15.32 16 16 16 C16 15.34 16 14.68 16 14 C16.66 13.67 17.32 13.34 18 13 C18.46898963 10.1840151 18.46898963 10.1840151 18.625 6.9375 C18.74875 4.978125 18.8725 3.01875 19 1 C9.595 1.495 9.595 1.495 0 2 C0 1.34 0 0.68 0 0 Z " fill="#F8DD14" transform="translate(62,22)"/>
<path d="M0 0 C1.19133545 -0.00630432 2.3826709 -0.01260864 3.61010742 -0.019104 C4.89763916 -0.01505554 6.1851709 -0.01100708 7.51171875 -0.00683594 C8.8454597 -0.00818331 10.17920018 -0.01012444 11.51293945 -0.01263428 C14.30717651 -0.01558218 17.10128563 -0.01129873 19.89550781 -0.00195312 C23.47683394 0.00944136 27.05786029 0.00288008 30.63917542 -0.00909805 C33.3929673 -0.01632574 36.14668815 -0.01402457 38.90048218 -0.00884247 C40.86310012 -0.0068598 42.82572083 -0.01293286 44.78833008 -0.019104 C46.57533325 -0.00964752 46.57533325 -0.00964752 48.3984375 0 C49.44862061 0.00159119 50.49880371 0.00318237 51.58081055 0.00482178 C54.19921875 0.25878906 54.19921875 0.25878906 57.19921875 2.25878906 C57.38671875 4.88378906 57.38671875 4.88378906 57.19921875 7.25878906 C56.70421875 5.27878906 56.70421875 5.27878906 56.19921875 3.25878906 C34.74921875 2.92878906 13.29921875 2.59878906 -8.80078125 2.25878906 C-5.35249217 -0.04007033 -4.06123895 0.00615339 0 0 Z " fill="#F7DA59" transform="translate(19.80078125,7.7412109375)"/>
<path d="M0 0 C0.33 0.66 0.66 1.32 1 2 C0.67 2.66 0.34 3.32 0 4 C21.12 4 42.24 4 64 4 C64 4.33 64 4.66 64 5 C41.33861763 6.25275164 18.68710479 6.10140011 -4 6 C-3.6875 4.125 -3.6875 4.125 -3 2 C-2.01 1.34 -1.02 0.68 0 0 Z " fill="#FDE162" transform="translate(9,16)"/>
<path d="M0 0 C10.56 0 21.12 0 32 0 C33.58493084 3.16986168 33.2940042 6.54032261 33 10 C32 12.5 32 12.5 31 14 C30.01 14 29.02 14 28 14 C28 14.99 28 15.98 28 17 C28.70769531 16.67644531 29.41539063 16.35289063 30.14453125 16.01953125 C33.1700996 14.93926676 35.48687473 14.70059942 38.6875 14.6875 C40.11642578 14.66236328 40.11642578 14.66236328 41.57421875 14.63671875 C42.37472656 14.75660156 43.17523438 14.87648438 44 15 C44.66 15.99 45.32 16.98 46 18 C45.13117188 17.97679688 44.26234375 17.95359375 43.3671875 17.9296875 C42.21476562 17.91164063 41.06234375 17.89359375 39.875 17.875 C38.73804688 17.85179688 37.60109375 17.82859375 36.4296875 17.8046875 C32.94242233 18.00327891 30.2446138 18.7475199 27 20 C27 18.68 27 17.36 27 16 C26.01 15.67 25.02 15.34 24 15 C24.825 14.401875 25.65 13.80375 26.5 13.1875 C27.325 12.465625 28.15 11.74375 29 11 C29 10.01 29 9.02 29 8 C28.67 8 28.34 8 28 8 C28 6.02 28 4.04 28 2 C14.14 1.505 14.14 1.505 0 1 C0 0.67 0 0.34 0 0 Z " fill="#F9E62E" transform="translate(30,22)"/>
<path d="M0 0 C0.09765625 6.15234375 0.09765625 6.15234375 0 8 C-1 9 -1 9 -4.5625 9.0625 C-5.696875 9.041875 -6.83125 9.02125 -8 9 C-6 7 -6 7 -3.375 6.875 C-2.59125 6.91625 -1.8075 6.9575 -1 7 C-1 5.02 -1 3.04 -1 1 C-3.97 1 -6.94 1 -10 1 C-10.66 2.32 -11.32 3.64 -12 5 C-12.99 5.33 -13.98 5.66 -15 6 C-15 5.01 -15 4.02 -15 3 C-17.16906915 3.81291528 -17.16906915 3.81291528 -17.8125 5.9375 C-19 8 -19 8 -21.4375 8.6875 C-24.63156852 10.32348631 -24.72335041 11.30050053 -25.8125 14.625 C-26.22732811 16.07804431 -26.62925084 17.53508867 -27 19 C-27.33 19 -27.66 19 -28 19 C-27.75319715 12.08952032 -25.9565068 7.89157439 -21 3 C-15.41337177 -1.34244465 -6.5582734 -3.2791367 0 0 Z " fill="#21789A" transform="translate(76,40)"/>
<path d="M0 0 C0.99 0.33 1.98 0.66 3 1 C3 4.63 3 8.26 3 12 C-0.63 12 -4.26 12 -8 12 C-8.33 14.97 -8.66 17.94 -9 21 C-1.74 21 5.52 21 13 21 C13 21.66 13 22.32 13 23 C-3.8929385 23.18451025 -3.8929385 23.18451025 -11 22 C-10.85962479 20.18706911 -10.71255111 18.3746557 -10.5625 16.5625 C-10.48128906 15.55316406 -10.40007813 14.54382813 -10.31640625 13.50390625 C-10 11 -10 11 -9 10 C-6.9412232 9.72046781 -4.88271568 9.55265649 -2.8125 9.37890625 C-2.214375 9.25386719 -1.61625 9.12882812 -1 9 C0.4783226 6.04335481 0.06032783 3.25770263 0 0 Z " fill="#E0D04D" transform="translate(68,63)"/>
<path d="M0 0 C17.16 0 34.32 0 52 0 C52 0.99 52 1.98 52 3 C51.01 2.67 50.02 2.34 49 2 C46.86205475 1.9166196 44.72157991 1.89266253 42.58203125 1.90234375 C41.32841797 1.90556641 40.07480469 1.90878906 38.78320312 1.91210938 C36.81770508 1.92467773 36.81770508 1.92467773 34.8125 1.9375 C33.47721519 1.94251683 32.14192859 1.94707941 30.80664062 1.95117188 C27.53771527 1.96297305 24.26888009 1.97943703 21 2 C21 2.33 21 2.66 21 3 C19.35 3 17.7 3 16 3 C16 2.34 16 1.68 16 1 C11.38 1 6.76 1 2 1 C2 2.32 2 3.64 2 5 C2.66 5 3.32 5 4 5 C4 6.65 4 8.3 4 10 C2.35 10 0.7 10 -1 10 C-0.67 6.7 -0.34 3.4 0 0 Z " fill="#F9CE0F" transform="translate(10,10)"/>
<path d="M0 0 C0.54527344 0.42152344 1.09054688 0.84304687 1.65234375 1.27734375 C7.24204014 5.33823429 11.09216823 6.78070375 18 7 C18 6.34 18 5.68 18 5 C19.98 5 21.96 5 24 5 C24 4.34 24 3.68 24 3 C24.99 3 25.98 3 27 3 C27.3125 5.1875 27.3125 5.1875 27 8 C24.82453396 10.51896068 22.989803 12.5050985 20 14 C19.34 13.01 18.68 12.02 18 11 C15.78888056 10.12862751 15.78888056 10.12862751 13.25 9.5625 C8.73859806 8.31078154 5.61489419 6.98228771 2 4 C0.84375 1.87109375 0.84375 1.87109375 0 0 Z " fill="#D8BD14" transform="translate(30,35)"/>
<path d="M0 0 C0 1.98 0 3.96 0 6 C-3.3 6 -6.6 6 -10 6 C-10 6.66 -10 7.32 -10 8 C-11.98 8.33 -13.96 8.66 -16 9 C-16.33 7.02 -16.66 5.04 -17 3 C-16.01 2.67 -15.02 2.34 -14 2 C-14 2.99 -14 3.98 -14 5 C-13.360625 4.175 -12.72125 3.35 -12.0625 2.5 C-7.97615535 -0.83579155 -5.07127064 -0.4971834 0 0 Z " fill="#027AD9" transform="translate(75,41)"/>
<path d="M0 0 C0.56847656 0.144375 1.13695312 0.28875 1.72265625 0.4375 C6.61255163 1.61303412 10.97046918 2.31434568 16 2 C16.33 1.67 16.66 1.34 17 1 C18.66617115 0.95936168 20.33388095 0.957279 22 1 C22 2.66666667 22 4.33333333 22 6 C20.02 6 18.04 6 16 6 C16 6.66 16 7.32 16 8 C11.20584946 8.38353204 7.87988115 8.43994058 3.5 6.25 C0.90615178 3.9155366 0.59977049 3.24421309 0 0 Z M5 4 C5.33 4.66 5.66 5.32 6 6 C8.88695186 6.84239972 8.88695186 6.84239972 12 7 C12.99 6.34 13.98 5.68 15 5 C13.99163938 3.76732652 13.99163938 3.76732652 11.93359375 3.90234375 C10.69802734 3.91974609 10.69802734 3.91974609 9.4375 3.9375 C8.19806641 3.95103516 8.19806641 3.95103516 6.93359375 3.96484375 C5.97646484 3.98224609 5.97646484 3.98224609 5 4 Z M15 4 C19 5 19 5 19 5 Z " fill="#F8EA72" transform="translate(32,34)"/>
<path d="M0 0 C1.32 0 2.64 0 4 0 C4.33 0.66 4.66 1.32 5 2 C7.02463255 2.65213292 7.02463255 2.65213292 9 3 C7.02 3.99 7.02 3.99 5 5 C21.335 5.495 21.335 5.495 38 6 C38 6.33 38 6.66 38 7 C24.8 7 11.6 7 -2 7 C-1.67 6.34 -1.34 5.68 -1 5 C-0.34 5 0.32 5 1 5 C0.67 3.35 0.34 1.7 0 0 Z " fill="#EEAF0A" transform="translate(26,13)"/>
<path d="M0 0 C0.33 0 0.66 0 1 0 C1 1.65 1 3.3 1 5 C-1.76452033 6.38226016 -4.0461363 6.09525387 -7.125 6.0625 C-8.22070312 6.05347656 -9.31640625 6.04445313 -10.4453125 6.03515625 C-11.28835937 6.02355469 -12.13140625 6.01195313 -13 6 C-12.34 7.98 -11.68 9.96 -11 12 C-13.31 11.34 -15.62 10.68 -18 10 C-16.68 9.67 -15.36 9.34 -14 9 C-14 8.34 -14 7.68 -14 7 C-17.63 6.67 -21.26 6.34 -25 6 C-25 5.67 -25 5.34 -25 5 C-19.28094617 4.17463655 -13.7732851 3.87246299 -8 3.9375 C-7.22527344 3.94201172 -6.45054688 3.94652344 -5.65234375 3.95117188 C-3.76819476 3.96280242 -1.88408635 3.98073094 0 4 C0 2.68 0 1.36 0 0 Z " fill="#2F6F79" transform="translate(47,59)"/>
<path d="M0 0 C0.33 0 0.66 0 1 0 C1 1.65 1 3.3 1 5 C2.7015625 4.9690625 2.7015625 4.9690625 4.4375 4.9375 C8 5 8 5 9 6 C9.26293056 10.03160191 9.29404844 11.55892734 7 15 C5.0546875 15.51171875 5.0546875 15.51171875 2.875 15.6875 C1.59625 15.790625 0.3175 15.89375 -1 16 C-1.33 17.65 -1.66 19.3 -2 21 C-2.33 21 -2.66 21 -3 21 C-3.04254356 19.00045254 -3.04080783 16.99958364 -3 15 C-1.41727399 13.41727399 0.38034003 13.65264253 2.5625 13.4375 C3.38878906 13.35371094 4.21507813 13.26992187 5.06640625 13.18359375 C5.70449219 13.12300781 6.34257813 13.06242187 7 13 C7 11.02 7 9.04 7 7 C4.69 7 2.38 7 0 7 C0 4.69 0 2.38 0 0 Z " fill="#25728A" transform="translate(60,58)"/>
<path d="M0 0 C1.65 0 3.3 0 5 0 C7.125 6.625 7.125 6.625 6 10 C5.01 10.495 5.01 10.495 4 11 C3.34 10.67 2.68 10.34 2 10 C2 9.34 2 8.68 2 8 C1.34 8 0.68 8 0 8 C0 5.36 0 2.72 0 0 Z M2 1 C2 2.65 2 4.3 2 6 C2.33 6 2.66 6 3 6 C3 4.35 3 2.7 3 1 C2.67 1 2.34 1 2 1 Z M3 6 C4 8 4 8 4 8 Z " fill="#F8EC65" transform="translate(25,24)"/>
<path d="M0 0 C0.66 0.33 1.32 0.66 2 1 C2.66 2.98 3.32 4.96 4 7 C9.61 7.33 15.22 7.66 21 8 C21 8.33 21 8.66 21 9 C13.74 9 6.48 9 -1 9 C-1 2 -1 2 0 0 Z " fill="#FDCC0D" transform="translate(60,75)"/>
<path d="M0 0 C0 0.99 0 1.98 0 3 C0.70769531 2.67644531 1.41539063 2.35289063 2.14453125 2.01953125 C5.1700996 0.93926676 7.48687473 0.70059942 10.6875 0.6875 C12.11642578 0.66236328 12.11642578 0.66236328 13.57421875 0.63671875 C14.37472656 0.75660156 15.17523438 0.87648437 16 1 C16.66 1.99 17.32 2.98 18 4 C17.13117188 3.97679687 16.26234375 3.95359375 15.3671875 3.9296875 C14.21476562 3.91164062 13.06234375 3.89359375 11.875 3.875 C10.73804687 3.85179687 9.60109375 3.82859375 8.4296875 3.8046875 C4.94242233 4.00327891 2.2446138 4.7475199 -1 6 C-1 4.68 -1 3.36 -1 2 C-1.99 1.67 -2.98 1.34 -4 1 C-2 0 -2 0 0 0 Z " fill="#D7D950" transform="translate(58,36)"/>
<path d="M0 0 C1.65 0 3.3 0 5 0 C4.01 0.33 3.02 0.66 2 1 C2 2.32 2 3.64 2 5 C2.66 5 3.32 5 4 5 C4 6.65 4 8.3 4 10 C2.35 10 0.7 10 -1 10 C-0.67 6.7 -0.34 3.4 0 0 Z " fill="#F8DC2B" transform="translate(10,10)"/>
<path d="M0 0 C1.32 0 2.64 0 4 0 C3.67 1.65 3.34 3.3 3 5 C-3.52307692 5.36923077 -3.52307692 5.36923077 -5.9375 3.5 C-6.4634375 2.7575 -6.4634375 2.7575 -7 2 C-4.69 2.33 -2.38 2.66 0 3 C0 2.01 0 1.02 0 0 Z " fill="#E9B800" transform="translate(58,13)"/>
<path d="M0 0 C0.66 0 1.32 0 2 0 C2.28571429 8.57142857 2.28571429 8.57142857 0 12 C-1.32 11.67 -2.64 11.34 -4 11 C-3.2884375 10.2265625 -3.2884375 10.2265625 -2.5625 9.4375 C-0.57190593 6.33217325 -0.34939182 3.63367496 0 0 Z " fill="#F8E351" transform="translate(61,24)"/>
<path d="M0 0 C-0.56371414 3.26954202 -1.49962266 4.82575883 -4 7 C-4.66 6.01 -5.32 5.02 -6 4 C-6.66 3.34 -7.32 2.68 -8 2 C-5.09399739 0.74335022 -3.20395416 0 0 0 Z " fill="#F0DD22" transform="translate(54,42)"/>
<path d="M0 0 C2.99693138 0.99897713 4.02709413 1.65130253 6 4 C6 4.66 6 5.32 6 6 C4.02 6 2.04 6 0 6 C0 4.02 0 2.04 0 0 Z " fill="#FCE30A" transform="translate(73,14)"/>
<path d="M0 0 C1.32 0 2.64 0 4 0 C4 0.66 4 1.32 4 2 C7.3 1.67 10.6 1.34 14 1 C13.01 2.485 13.01 2.485 12 4 C10.56138706 3.91253716 9.12402492 3.80434652 7.6875 3.6875 C6.88699219 3.62949219 6.08648437 3.57148437 5.26171875 3.51171875 C2.63727666 2.91793306 1.69179328 2.04219706 0 0 Z " fill="#FAE115" transform="translate(32,33)"/>
<path d="M0 0 C0.33 0 0.66 0 1 0 C1.268125 1.11375 1.53625 2.2275 1.8125 3.375 C2.65809019 7.21840951 2.65809019 7.21840951 6 9 C5.67 9.99 5.34 10.98 5 12 C4.01 11.34 3.02 10.68 2 10 C2 9.34 2 8.68 2 8 C1.01 7.67 0.02 7.34 -1 7 C-0.67 4.69 -0.34 2.38 0 0 Z " fill="#F7EA76" transform="translate(77,10)"/>
<path d="M0 0 C0.99 0 1.98 0 3 0 C3 1.98 3 3.96 3 6 C1.35 6 -0.3 6 -2 6 C-2 5.34 -2 4.68 -2 4 C-1.34 4 -0.68 4 0 4 C0 2.68 0 1.36 0 0 Z " fill="#1675B3" transform="translate(54,79)"/>
<path d="M0 0 C1.65 0 3.3 0 5 0 C5.33 0.99 5.66 1.98 6 3 C5.34 3 4.68 3 4 3 C4 3.66 4 4.32 4 5 C3.34 5 2.68 5 2 5 C2 4.01 2 3.02 2 2 C1.34 2 0.68 2 0 2 C0 1.34 0 0.68 0 0 Z " fill="#FBE10D" transform="translate(24,34)"/>
<path d="M0 0 C0.66 0.33 1.32 0.66 2 1 C1.67 2.32 1.34 3.64 1 5 C0.34 5 -0.32 5 -1 5 C-1 6.98 -1 8.96 -1 11 C-1.33 11 -1.66 11 -2 11 C-2.33 8.36 -2.66 5.72 -3 3 C-2.34 3 -1.68 3 -1 3 C-0.67 2.01 -0.34 1.02 0 0 Z " fill="#1378B6" transform="translate(61,53)"/>
<path d="M0 0 C1.65 0 3.3 0 5 0 C0.375 4 0.375 4 -3 4 C-3 3.34 -3 2.68 -3 2 C-2.01 2 -1.02 2 0 2 C0 1.34 0 0.68 0 0 Z " fill="#1276B8" transform="translate(65,47)"/>
</svg>
